<?xml version="1.0" encoding="UTF-8" standalone="no"?>
<!DOCTYPE svg PUBLIC "-//W3C//DTD SVG 20010904//EN"
              "http://www.w3.org/TR/2001/REC-SVG-20010904/DTD/svg10.dtd">

<svg xmlns="http://www.w3.org/2000/svg"
     width="auto" height="100%"
     viewBox="0 0 600 600">
    <g transform="scale(0.8) translate(100,50)">
        <circle cx="300" cy="300" r="260" fill="none" stroke="gray" stroke-width="10"></circle>
        <line x1="110" y1="120" x2="480" y2="490" style="stroke:gray;stroke-width:10" />
        <line x1="110" y1="500" x2="490" y2="120" style="stroke:gray;stroke-width:10" />
        <line x1="300" y1="40" x2="300" y2="560" style="stroke:gray;stroke-width:10" />
        <line x1="110" y1="300" x2="560" y2="300" style="stroke:gray;stroke-width:10" />
        <circle cx="300" cy="300" r="150" fill="white" stroke="gray" stroke-width="15"></circle>
    </g>
    <g transform="scale(0.8) translate(100,40)">
    <g transform="scale(0.25) translate(180,180)">
        <circle cx="300" cy="300" r="300" fill="lightblue"></circle>
        <path id="Selection"
            fill="white" stroke="blue" stroke-width="1"
            d="M 164.50,134.50
            C 164.50,134.50 131.75,134.25 131.75,134.25
                123.74,134.85 123.50,135.50 117.00,137.75
                111.75,141.00 111.00,141.75 106.00,146.50
                102.81,151.08 100.00,156.25 98.00,165.25
                97.25,175.25 97.00,196.01 97.00,208.00
                97.00,208.00 97.50,439.00 97.50,439.00
                97.50,441.68 98.76,450.65 99.50,453.25
                103.87,468.65 121.09,479.04 137.00,479.25
                139.63,479.60 474.86,480.30 474.00,480.19
                478.18,480.07 484.82,479.25 489.00,477.75
                493.95,476.22 502.89,469.56 505.50,465.00
                507.28,461.90 508.25,458.25 511.25,450.75
                512.50,442.00 512.99,442.34 513.00,432.75
                513.00,432.75 513.00,344.00 513.00,344.00
                513.00,344.00 514.00,329.00 514.00,329.00
                514.00,329.00 514.00,233.00 514.00,233.00
                514.00,233.00 515.00,216.00 515.00,216.00
                515.00,216.00 515.00,172.00 515.00,172.00
                513.23,155.95 511.09,152.46 505.50,145.25
                497.56,139.57 495.35,136.13 481.00,135.13
                481.00,135.13 453.00,135.13 453.00,135.13
                453.00,129.65 454.00,115.05 451.26,111.11
                449.69,108.84 447.70,107.71 445.00,107.39
                442.03,106.97 423.41,106.76 421.00,107.39
                418.79,108.04 417.06,109.21 415.74,111.11
                413.00,115.05 414.00,129.65 414.00,135.00
                414.00,135.00 404.50,135.25 404.50,135.25
                404.50,135.25 224.00,134.00 224.00,134.00
                221.20,134.00 216.50,134.50 209.00,134.75
                205.81,133.36 207.06,128.98 207.00,126.00
                206.92,121.42 207.50,116.75 205.75,110.75
                202.98,107.88 204.00,109.00 200.00,107.75
                193.25,107.58 172.08,104.89 167.00,110.25
                166.02,111.29 165.14,112.36 165.00,113.75
                165.00,113.75 164.50,134.50 164.50,134.50 Z
            M 259.59,166.27
            C 253.82,166.36 246.70,167.02 245.75,167.25
                243.55,168.49 244.30,179.16 244.50,181.50
                244.77,186.81 243.35,189.99 246.75,193.75
                250.40,196.41 259.18,195.01 264.00,195.00
                264.00,195.00 371.00,194.00 371.00,194.00
                374.89,193.99 378.78,194.36 381.40,190.85
                383.35,188.24 383.03,184.13 383.00,181.00
                382.96,177.88 383.22,172.16 381.50,169.50
                379.00,166.25 378.50,166.50 371.50,166.50
                371.50,166.50 289.52,165.81 259.59,166.27 Z
            M 144.04,229.85
            C 137.88,233.45 138.01,236.44 138.00,243.00
                138.00,243.00 138.00,273.00 138.00,273.00
                138.02,275.76 137.91,278.41 139.31,280.91
                141.78,285.29 145.43,285.92 150.00,286.00
                150.00,286.00 175.00,286.00 175.00,286.00
                179.81,285.99 183.96,286.20 187.11,281.81
                189.25,278.83 188.99,275.48 189.00,272.00
                189.00,272.00 189.00,242.00 189.00,242.00
                188.97,237.48 188.87,233.80 184.81,230.89
                182.04,228.90 179.23,229.02 176.00,229.00
                168.94,228.96 149.74,228.26 144.04,229.85 Z
            M 212.04,229.85
            C 205.88,233.45 206.01,236.44 206.00,243.00
                206.00,243.00 206.00,273.00 206.00,273.00
                206.02,275.76 205.91,278.41 207.31,280.91
                209.78,285.29 213.43,285.92 218.00,286.00
                218.00,286.00 243.00,286.00 243.00,286.00
                247.81,285.99 251.96,286.20 255.11,281.81
                257.25,278.83 256.99,275.48 257.00,272.00
                257.00,272.00 257.00,242.00 257.00,242.00
                256.97,237.48 256.87,233.80 252.81,230.89
                250.04,228.90 247.23,229.02 244.00,229.00
                236.94,228.96 217.74,228.26 212.04,229.85 Z
            M 279.04,229.85
            C 272.88,233.45 273.01,236.44 273.00,243.00
                273.00,243.00 273.00,273.00 273.00,273.00
                273.02,275.76 272.91,278.41 274.31,280.91
                276.78,285.29 280.43,285.92 285.00,286.00
                285.00,286.00 310.00,286.00 310.00,286.00
                314.81,285.99 318.96,286.20 322.11,281.81
                324.25,278.83 323.99,275.48 324.00,272.00
                324.00,272.00 324.00,242.00 324.00,242.00
                323.97,237.48 323.87,233.80 319.81,230.89
                317.04,228.90 314.23,229.02 311.00,229.00
                303.94,228.96 284.74,228.26 279.04,229.85 Z
            M 346.04,229.85
            C 339.88,233.45 340.01,236.44 340.00,243.00
                340.00,243.00 340.00,273.00 340.00,273.00
                340.02,275.76 339.91,278.41 341.31,280.91
                343.78,285.29 347.43,285.92 352.00,286.00
                352.00,286.00 377.00,286.00 377.00,286.00
                381.81,285.99 385.96,286.20 389.11,281.81
                391.25,278.83 390.99,275.48 391.00,272.00
                391.00,272.00 391.00,242.00 391.00,242.00
                390.97,237.48 390.87,233.80 386.81,230.89
                384.04,228.90 381.23,229.02 378.00,229.00
                370.94,228.96 351.74,228.26 346.04,229.85 Z
            M 414.04,229.85
            C 407.88,233.45 408.01,236.44 408.00,243.00
                408.00,243.00 408.00,273.00 408.00,273.00
                408.02,275.76 407.91,278.41 409.31,280.91
                411.78,285.29 415.43,285.92 420.00,286.00
                420.00,286.00 445.00,286.00 445.00,286.00
                449.81,285.99 453.96,286.20 457.11,281.81
                459.25,278.83 458.99,275.48 459.00,272.00
                459.00,272.00 459.00,242.00 459.00,242.00
                458.97,237.48 458.87,233.80 454.81,230.89
                452.04,228.90 449.23,229.02 446.00,229.00
                438.94,228.96 419.74,228.26 414.04,229.85 Z
            M 144.04,300.85
            C 137.88,304.45 138.01,307.44 138.00,314.00
                138.00,314.00 138.00,344.00 138.00,344.00
                138.02,346.76 137.91,349.41 139.31,351.91
                141.78,356.29 145.43,356.92 150.00,357.00
                150.00,357.00 175.00,357.00 175.00,357.00
                179.81,356.99 183.96,357.20 187.11,352.81
                189.25,349.83 188.99,346.48 189.00,343.00
                189.00,343.00 189.00,313.00 189.00,313.00
                188.97,308.48 188.87,304.80 184.81,301.89
                182.04,299.90 179.23,300.02 176.00,300.00
                168.94,299.96 149.74,299.26 144.04,300.85 Z
            M 212.04,300.85
            C 205.88,304.45 206.01,307.44 206.00,314.00
                206.00,314.00 206.00,344.00 206.00,344.00
                206.02,346.76 205.91,349.41 207.31,351.91
                209.78,356.29 213.43,356.92 218.00,357.00
                218.00,357.00 243.00,357.00 243.00,357.00
                247.81,356.99 251.96,357.20 255.11,352.81
                257.25,349.83 256.99,346.48 257.00,343.00
                257.00,343.00 257.00,313.00 257.00,313.00
                256.97,308.48 256.87,304.80 252.81,301.89
                250.04,299.90 247.23,300.02 244.00,300.00
                236.94,299.96 217.74,299.26 212.04,300.85 Z
            M 279.04,300.85
            C 272.88,304.45 273.01,307.44 273.00,314.00
                273.00,314.00 273.00,344.00 273.00,344.00
                273.02,346.76 272.91,349.41 274.31,351.91
                276.78,356.29 280.43,356.92 285.00,357.00
                285.00,357.00 310.00,357.00 310.00,357.00
                314.81,356.99 318.96,357.20 322.11,352.81
                324.25,349.83 323.99,346.48 324.00,343.00
                324.00,343.00 324.00,313.00 324.00,313.00
                323.97,308.48 323.87,304.80 319.81,301.89
                317.04,299.90 314.23,300.02 311.00,300.00
                303.94,299.96 284.74,299.26 279.04,300.85 Z
            M 346.04,300.85
            C 339.88,304.45 340.01,307.44 340.00,314.00
                340.00,314.00 340.00,344.00 340.00,344.00
                340.02,346.76 339.91,349.41 341.31,351.91
                343.78,356.29 347.43,356.92 352.00,357.00
                352.00,357.00 377.00,357.00 377.00,357.00
                381.81,356.99 385.96,357.20 389.11,352.81
                391.25,349.83 390.99,346.48 391.00,343.00
                391.00,343.00 391.00,313.00 391.00,313.00
                390.97,308.48 390.87,304.80 386.81,301.89
                384.04,299.90 381.23,300.02 378.00,300.00
                370.94,299.96 351.74,299.26 346.04,300.85 Z
            M 414.04,300.85
            C 407.88,304.45 408.01,307.44 408.00,314.00
                408.00,314.00 408.00,344.00 408.00,344.00
                408.02,346.76 407.91,349.41 409.31,351.91
                411.78,356.29 415.43,356.92 420.00,357.00
                420.00,357.00 445.00,357.00 445.00,357.00
                449.81,356.99 453.96,357.20 457.11,352.81
                459.25,349.83 458.99,346.48 459.00,343.00
                459.00,343.00 459.00,313.00 459.00,313.00
                458.97,308.48 458.87,304.80 454.81,301.89
                452.04,299.90 449.23,300.02 446.00,300.00
                438.94,299.96 419.74,299.26 414.04,300.85 Z
            M 144.04,373.85
            C 137.88,377.45 138.01,380.44 138.00,387.00
                138.00,387.00 138.00,417.00 138.00,417.00
                138.02,419.76 137.91,422.41 139.31,424.91
                141.78,429.29 145.43,429.92 150.00,430.00
                150.00,430.00 175.00,430.00 175.00,430.00
                179.81,429.99 183.96,430.20 187.11,425.81
                189.25,422.83 188.99,419.48 189.00,416.00
                189.00,416.00 189.00,386.00 189.00,386.00
                188.97,381.48 188.87,377.80 184.81,374.89
                182.04,372.90 179.23,373.02 176.00,373.00
                168.94,372.96 149.74,372.26 144.04,373.85 Z
            M 212.04,373.85
            C 205.88,377.45 206.01,380.44 206.00,387.00
                206.00,387.00 206.00,417.00 206.00,417.00
                206.02,419.76 205.91,422.41 207.31,424.91
                209.78,429.29 213.43,429.92 218.00,430.00
                218.00,430.00 243.00,430.00 243.00,430.00
                247.81,429.99 251.96,430.20 255.11,425.81
                257.25,422.83 256.99,419.48 257.00,416.00
                257.00,416.00 257.00,386.00 257.00,386.00
                256.97,381.48 256.87,377.80 252.81,374.89
                250.04,372.90 247.23,373.02 244.00,373.00
                236.94,372.96 217.74,372.26 212.04,373.85 Z
            M 279.04,373.85
            C 272.88,377.45 273.01,380.44 273.00,387.00
                273.00,387.00 273.00,417.00 273.00,417.00
                273.02,419.76 272.91,422.41 274.31,424.91
                276.78,429.29 280.43,429.92 285.00,430.00
                285.00,430.00 310.00,430.00 310.00,430.00
                314.81,429.99 318.96,430.20 322.11,425.81
                324.25,422.83 323.99,419.48 324.00,416.00
                324.00,416.00 324.00,386.00 324.00,386.00
                323.97,381.48 323.87,377.80 319.81,374.89
                317.04,372.90 314.23,373.02 311.00,373.00
                303.94,372.96 284.74,372.26 279.04,373.85 Z
            M 346.04,373.85
            C 339.88,377.45 340.01,380.44 340.00,387.00
                340.00,387.00 340.00,417.00 340.00,417.00
                340.02,419.76 339.91,422.41 341.31,424.91
                343.78,429.29 347.43,429.92 352.00,430.00
                352.00,430.00 377.00,430.00 377.00,430.00
                381.81,429.99 385.96,430.20 389.11,425.81
                391.25,422.83 390.99,419.48 391.00,416.00
                391.00,416.00 391.00,386.00 391.00,386.00
                390.97,381.48 390.87,377.80 386.81,374.89
                384.04,372.90 381.23,373.02 378.00,373.00
                370.94,372.96 351.74,372.26 346.04,373.85 Z
            M 111.25,190.25
            C 111.25,190.25 111.00,179.50 111.50,171.25
                113.50,164.25 117.25,160.75 124.25,154.00
                136.00,148.50 146.21,148.91 159.75,149.00
                164.50,149.00 165.75,148.50 165.75,153.00
                165.75,153.00 166.83,178.00 166.83,178.00
                167.20,181.68 166.56,185.94 168.75,189.25
                172.25,193.25 174.03,190.88 176.50,192.00
                183.50,193.00 187.75,192.75 195.50,192.25
                198.26,191.37 198.25,192.75 206.50,189.00
                208.75,181.00 209.00,157.90 209.00,149.00
                212.50,149.25 215.00,149.00 215.00,149.00
                215.00,149.00 364.91,149.76 403.85,149.95
                409.66,149.98 413.00,150.00 413.00,150.00
                413.00,150.00 413.50,173.25 413.50,173.25
                413.55,176.82 413.00,180.50 415.25,185.25
                418.82,186.49 426.10,186.76 433.00,186.75
                438.67,186.74 447.89,186.76 450.75,184.50
                452.50,181.25 452.95,185.09 453.50,177.00
                453.50,177.00 454.00,150.00 454.00,150.00
                457.69,150.00 466.95,149.68 470.00,150.54
                470.00,150.54 481.75,152.50 481.75,152.50
                489.75,157.50 490.60,156.35 496.75,166.25
                499.50,172.25 498.91,170.69 499.08,177.00
                499.08,177.00 498.25,433.75 498.25,433.75
                498.25,433.75 496.25,444.50 494.75,450.25
                490.00,457.75 487.98,459.58 482.25,462.25
                478.38,464.05 463.02,463.06 458.00,463.00
                447.75,462.88 159.25,461.75 140.50,460.75
                134.09,459.47 126.75,460.50 119.75,454.00
                114.00,447.00 111.80,434.41 112.01,425.00
                112.01,425.00 111.25,190.25 111.25,190.25 Z" />
    </g>
    <g transform="scale(0.25) translate(900,-100)">
        <circle cx="300" cy="300" r="300" fill="lightgray"></circle>
        <ellipse cx="300" cy="220" rx="90" ry="130" stroke="gray" stroke-width="1" fill="white"></ellipse>
        <path id="Profile"
        transform="translate(8,0)"
            fill="white" stroke="blue" stroke-width="1"
            d="M 295.33,542.33
            C 314.54,542.41 337.33,539.67 337.33,539.67
                351.67,537.00 390.67,529.00 390.67,529.00
                390.67,529.00 412.08,521.85 422.67,516.00
                425.91,514.21 436.98,509.17 440.00,506.95
                446.33,502.28 450.63,500.95 451.33,492.67
                451.33,492.67 451.33,474.33 451.33,474.33
                451.33,474.33 446.00,393.33 446.00,393.33
                445.29,382.93 447.00,385.33 438.67,374.67
                433.51,371.04 428.45,370.81 423.00,369.20
                410.00,370.33 390.78,368.67 374.81,369.41
                367.85,369.73 363.00,370.00 363.00,370.00
                356.33,370.33 353.03,371.00 353.00,379.67
                353.00,379.67 349.00,394.50 343.25,403.50
                332.75,415.00 332.25,416.50 319.75,424.25
                303.50,428.25 282.00,427.75 269.33,424.67
                255.33,417.67 249.67,411.00 241.33,402.33
                238.33,394.00 234.78,388.65 234.48,384.00
                234.20,379.75 233.41,377.66 228.33,375.67
                222.24,373.12 214.10,373.44 207.67,373.67
                207.67,373.67 170.00,374.00 170.00,374.00
                161.77,373.90 156.12,372.64 150.00,378.67
                144.54,384.05 144.09,386.16 144.00,393.67
                144.00,393.67 139.00,490.00 139.00,490.00
                139.01,495.91 136.69,498.83 142.67,502.00
                145.33,503.41 161.33,513.00 161.33,513.00
                171.17,520.04 185.93,525.55 197.33,529.33
                217.14,535.91 247.00,540.33 247.00,540.33
                247.00,540.33 273.24,542.24 295.33,542.33 Z" />
    </g>
    <g transform="scale(0.25) translate(1650,200)">
        <circle cx="300" cy="300" r="300" fill="#ff9999"></circle>
        <path id="Selection"
            fill="white" stroke="#803030" stroke-width="1"
            d="M 396.00,449.00
            C 396.00,449.00 411.00,451.50 417.00,448.50
                418.50,443.00 417.00,427.00 417.00,427.00
                417.00,427.00 419.50,204.00 419.50,204.00
                419.50,204.00 418.50,187.50 418.50,187.50
                418.50,187.50 402.00,187.50 402.00,187.50
                402.00,187.50 110.00,191.50 110.00,191.50
                110.00,191.50 95.00,190.00 85.00,194.00
                85.00,201.50 84.50,211.50 84.50,211.50
                84.50,211.50 86.00,426.00 86.00,426.00
                86.18,436.68 91.46,440.50 96.00,443.50
                98.77,445.33 112.17,445.00 115.00,445.00
                115.00,445.00 396.00,449.00 396.00,449.00 Z
            M 383.00,207.00
            C 379.79,213.04 372.77,216.04 369.00,219.00
                369.00,219.00 272.94,292.93 267.49,296.90
                262.86,300.28 261.00,303.00 252.50,305.50
                245.50,302.00 246.37,300.88 238.00,295.50
                206.71,275.40 135.45,227.16 131.00,224.00
                131.00,224.00 122.00,217.50 113.00,212.00
                121.50,209.50 134.00,211.00 134.00,211.00
                134.00,211.00 366.50,206.50 366.50,206.50
                366.50,206.50 383.00,207.00 383.00,207.00 Z
            M 404.00,213.00
            C 404.50,227.00 403.50,212.34 403.50,231.00
                403.50,231.00 402.52,361.39 402.15,411.61
                402.06,423.58 402.00,431.00 402.00,431.00
                402.00,431.00 396.99,431.93 385.50,432.50
                339.27,434.80 122.00,431.00 122.00,431.00
                122.00,431.00 111.00,432.00 103.00,430.00
                101.50,424.00 102.50,412.50 102.50,412.50
                102.50,412.50 102.96,241.00 102.96,241.00
                102.96,241.00 101.50,230.00 102.96,226.00
                108.00,225.50 112.27,229.23 118.00,233.19
                118.00,233.19 205.71,296.08 241.00,317.50
                248.79,322.23 248.00,321.50 254.50,323.00
                267.00,317.00 262.91,318.60 271.88,311.98
                290.96,297.92 388.50,224.50 388.50,224.50
                395.41,219.22 396.00,217.00 404.00,213.00 Z
            M 431.00,245.00
            C 431.00,245.00 457.00,245.00 457.00,245.00
                457.00,245.00 479.90,244.66 499.13,244.38
                513.03,244.18 525.00,244.00 525.00,244.00
                525.00,244.00 523.50,217.50 523.50,217.50
                508.50,215.00 517.33,216.61 502.50,216.50
                502.50,216.50 450.00,216.00 450.00,216.00
                445.08,216.21 429.76,215.38 432.50,216.00
                431.49,217.80 431.00,245.00 431.00,245.00 Z
            M 431.00,292.00
            C 431.00,292.00 431.00,320.00 431.00,320.00
                431.00,320.00 458.00,320.00 458.00,320.00
                458.00,320.00 480.70,319.66 499.48,319.37
                512.72,319.17 524.00,319.00 524.00,319.00
                524.00,319.00 524.00,291.00 524.00,291.00
                515.25,294.69 506.33,292.01 497.00,292.00
                497.00,292.00 453.00,291.00 453.00,291.00
                442.78,290.98 440.94,288.29 431.00,292.00 Z
            M 431.00,363.00
            C 431.00,363.00 432.00,391.00 432.00,391.00
                432.00,391.00 451.50,390.50 451.50,390.50
                451.50,390.50 486.48,390.57 505.43,390.27
                515.40,390.12 523.00,390.00 523.00,390.00
                523.00,390.00 523.00,364.00 523.00,364.00
                523.00,364.00 515.99,363.80 506.38,363.53
                485.39,362.94 450.00,362.50 450.00,362.50
                437.03,362.35 445.32,359.59 431.00,363.00 Z" />
    </g>

    <g transform="scale(0.25) translate(2000,950)">
        <circle cx="300" cy="300" r="300" fill="lightblue"></circle>
        <path id="Selection"
        fill="white" stroke="blue" stroke-width="1"
        d="M 517.17,173.15
           C 498.91,157.83 490.57,149.76 475.11,141.52
             470.01,138.80 474.78,140.22 462.72,135.65
             456.85,141.20 455.87,141.21 451.63,146.41
             444.71,154.90 436.23,164.13 429.46,171.20
             425.83,174.98 423.66,177.73 420.33,180.33
             420.33,180.33 146.09,182.60 146.09,182.60
             146.04,195.30 146.90,230.54 146.41,244.40
             143.48,241.47 140.87,235.27 138.91,239.84
             138.91,239.84 114.78,279.78 114.78,279.78
             114.78,279.78 146.41,310.43 146.41,310.43
             146.41,310.43 145.27,453.91 145.27,453.91
             145.27,453.91 415.43,453.26 415.43,453.26
             425.81,453.24 423.26,456.52 430.76,450.65
             433.70,443.80 432.07,444.78 432.72,435.00
             432.72,387.69 432.39,296.09 433.37,269.67
             442.50,262.50 503.17,212.13 518.80,199.89
             527.93,187.17 525.33,192.07 528.59,186.20
             525.68,182.14 519.81,176.24 517.17,173.15 Z
           M 406.63,193.04
           C 406.63,193.04 262.50,355.11 262.50,355.11
             243.26,337.50 177.23,272.28 156.68,254.02
             156.03,243.26 156.52,206.49 156.52,193.04
             156.52,193.04 406.63,193.04 406.63,193.04 Z
           M 422.28,281.41
           C 422.28,281.41 422.93,437.61 422.93,437.61
             422.93,437.61 156.52,438.26 156.52,438.26
             156.52,438.26 156.52,323.48 156.52,323.48
             156.52,323.48 260.87,410.87 260.87,410.87
             260.87,410.87 271.30,401.74 271.30,401.74
             271.30,401.74 422.28,281.41 422.28,281.41 Z" />
    </g>
    <g transform="scale(0.25) translate(-150,950)">
    <circle cx="300" cy="300" r="300" fill="#ff9999"></circle>
    <path id="Selection"
        fill="white" stroke="#803030" stroke-width="1"
        d="M 124.00,159.00
           C 124.00,159.00 124.00,228.00 124.00,228.00
             124.02,238.65 125.87,241.98 137.00,242.00
             137.00,242.00 207.00,242.00 207.00,242.00
             218.43,241.98 219.98,239.01 220.00,228.00
             220.00,228.00 220.00,160.00 220.00,160.00
             219.98,148.15 216.40,146.02 205.00,146.00
             205.00,146.00 156.00,146.00 156.00,146.00
             148.39,146.00 134.67,145.00 129.00,148.00
             126.33,150.67 124.10,151.37 124.00,159.00 Z
           M 249.00,158.00
           C 249.00,158.00 249.00,229.00 249.00,229.00
             249.02,240.02 250.98,241.98 262.00,242.00
             262.00,242.00 332.00,242.00 332.00,242.00
             343.13,241.98 344.98,238.65 345.00,228.00
             345.00,228.00 345.00,161.00 345.00,161.00
             344.98,148.79 342.21,146.02 330.00,146.00
             330.00,146.00 280.00,146.00 280.00,146.00
             272.99,146.00 269.33,146.67 260.00,146.33
             248.67,145.33 249.67,150.33 249.00,158.00 Z
           M 368.00,158.00
           C 368.00,158.00 368.00,229.00 368.00,229.00
             368.02,240.09 369.91,241.98 381.00,242.00
             381.00,242.00 451.00,242.00 451.00,242.00
             462.13,241.98 463.98,238.65 464.00,228.00
             464.00,228.00 464.00,161.00 464.00,161.00
             463.98,148.79 461.21,146.02 449.00,146.00
             449.00,146.00 400.00,146.00 400.00,146.00
             392.39,146.00 385.67,146.00 377.67,146.67
             370.00,146.67 368.00,148.00 368.00,158.00 Z
           M 124.33,276.67
           C 124.33,276.67 124.00,347.00 124.00,347.00
             124.02,358.46 126.54,360.98 138.00,361.00
             138.00,361.00 206.00,361.00 206.00,361.00
             217.46,360.98 219.98,358.46 220.00,347.00
             220.00,347.00 220.00,279.00 220.00,279.00
             219.98,267.54 217.46,265.02 206.00,265.00
             206.00,265.00 156.00,265.00 156.00,265.00
             148.84,265.00 141.00,265.33 133.67,265.67
             126.00,266.00 124.33,266.00 124.33,276.67 Z
           M 252.00,268.00
           C 247.29,273.12 249.00,283.31 249.00,290.00
             249.00,290.00 249.00,347.00 249.00,347.00
             249.02,358.46 251.54,360.98 263.00,361.00
             263.00,361.00 331.00,361.00 331.00,361.00
             342.46,360.98 344.98,358.46 345.00,347.00
             345.00,347.00 345.00,280.00 345.00,280.00
             344.98,268.37 342.94,265.02 331.00,265.00
             331.00,265.00 281.00,265.00 281.00,265.00
             273.84,265.00 261.99,264.20 255.67,266.00
             255.67,266.00 252.00,268.00 252.00,268.00 Z
           M 378.67,265.67
           C 364.67,264.33 368.00,283.31 368.00,290.00
             368.00,290.00 368.00,347.00 368.00,347.00
             368.02,358.46 370.54,360.98 382.00,361.00
             382.00,361.00 450.00,361.00 450.00,361.00
             461.46,360.98 463.98,358.46 464.00,347.00
             464.00,347.00 464.00,279.00 464.00,279.00
             463.98,267.64 461.22,265.02 450.00,265.00
             450.00,265.00 400.00,265.00 400.00,265.00
             392.84,265.00 387.33,264.67 378.67,265.67 Z
           M 124.67,391.67
           C 123.67,398.67 124.00,465.00 124.00,465.00
             124.02,476.12 126.88,478.98 138.00,479.00
             138.00,479.00 206.00,479.00 206.00,479.00
             217.46,478.98 219.98,476.46 220.00,465.00
             220.00,465.00 220.00,397.00 220.00,397.00
             219.98,386.35 218.13,383.02 207.00,383.00
             207.00,383.00 156.00,383.00 156.00,383.00
             148.84,383.00 144.00,382.33 135.33,382.67
             126.33,382.67 125.00,383.67 124.67,391.67 Z
           M 249.00,394.00
           C 249.00,394.00 249.00,465.00 249.00,465.00
             249.02,476.46 251.54,478.98 263.00,479.00
             263.00,479.00 330.00,479.00 330.00,479.00
             342.21,478.98 344.98,476.21 345.00,464.00
             345.00,464.00 345.00,397.00 345.00,397.00
             344.98,385.54 342.46,383.02 331.00,383.00
             331.00,383.00 265.33,382.67 259.67,383.00
             248.33,382.33 249.00,388.33 249.00,394.00 Z
           M 368.00,394.00
           C 368.00,394.00 368.00,465.00 368.00,465.00
             368.02,476.46 370.54,478.98 382.00,479.00
             382.00,479.00 449.00,479.00 449.00,479.00
             461.21,478.98 463.98,476.21 464.00,464.00
             464.00,464.00 464.00,397.00 464.00,397.00
             463.98,385.54 461.46,383.02 450.00,383.00
             450.00,383.00 386.67,383.33 380.33,383.00
             370.00,382.67 368.00,385.33 368.00,394.00 Z
           M 381.33,359.00" />
    </g>
    <g transform="scale(0.25) translate(180,1700)">
    <circle cx="300" cy="300" r="300" fill="lightblue"></circle>
    <path id="Selection"
        transform="translate(-10,10)"
        fill="white" stroke="blue" stroke-width="1"
        d="M 293.00,106.21
           C 266.69,110.24 248.79,114.41 225.00,127.31
             180.65,151.35 149.35,193.34 137.13,242.00
             134.51,252.41 132.02,265.29 132.00,276.00
             132.00,276.00 132.00,298.00 132.00,298.00
             132.03,318.20 138.21,338.26 145.19,357.00
             153.33,374.67 162.47,391.16 169.97,400.91
             169.97,400.91 176.72,408.04 176.72,408.04
             199.97,433.60 227.67,451.91 261.00,461.42
             271.27,464.35 287.44,467.87 298.00,468.00
             298.00,468.00 322.00,468.00 322.00,468.00
             346.13,467.96 380.34,456.84 401.00,444.55
             438.28,422.37 465.77,388.84 480.31,348.00
             484.76,335.49 489.84,313.16 490.00,300.00
             490.00,300.00 490.00,276.00 490.00,276.00
             489.94,234.33 465.67,184.55 436.00,156.04
             420.44,141.08 401.83,128.64 382.00,120.15
             364.42,112.62 340.17,106.03 321.00,106.21
             321.00,106.21 293.00,106.21 293.00,106.21 Z
           M 324.00,130.00
           C 324.00,130.00 324.00,159.00 324.00,159.00
             324.00,159.00 323.00,175.00 323.00,175.00
             323.00,175.00 323.00,218.00 323.00,218.00
             323.00,218.00 322.00,235.00 322.00,235.00
             322.00,235.00 322.00,277.00 322.00,277.00
             321.98,288.42 318.73,290.98 331.00,291.00
             331.00,291.00 422.00,291.00 422.00,291.00
             422.00,291.00 422.00,310.00 422.00,310.00
             422.00,310.00 329.00,310.00 329.00,310.00
             317.61,310.05 315.92,311.04 302.67,308.67
             302.67,308.67 302.00,285.00 302.00,285.00
             302.00,285.00 303.00,269.00 303.00,269.00
             303.00,269.00 303.00,226.00 303.00,226.00
             303.00,226.00 304.00,209.00 304.00,209.00
             304.00,209.00 304.00,167.00 304.00,167.00
             304.00,167.00 305.00,151.00 305.00,151.00
             305.00,151.00 305.00,129.00 305.00,129.00
             305.00,129.00 324.00,130.00 324.00,130.00 Z
           M 256.00,165.00
           C 253.16,166.89 244.21,173.41 241.10,172.99
             238.93,172.69 230.59,160.05 229.00,155.00
             229.00,155.00 243.90,147.01 243.90,147.01
             243.90,147.01 256.00,165.00 256.00,165.00 Z
           M 403.00,157.00
           C 403.00,157.00 391.00,177.00 391.00,177.00
             391.00,177.00 374.00,168.00 374.00,168.00
             374.00,168.00 386.00,148.00 386.00,148.00
             386.00,148.00 403.00,157.00 403.00,157.00 Z
           M 181.00,198.00
           C 181.00,198.00 200.00,210.00 200.00,210.00
             200.00,210.00 191.00,227.00 191.00,227.00
             191.00,227.00 171.00,215.00 171.00,215.00
             171.00,215.00 181.00,198.00 181.00,198.00 Z
           M 442.00,205.00
           C 442.00,205.00 452.00,221.00 452.00,221.00
             452.00,221.00 432.00,232.00 432.00,232.00
             432.00,232.00 423.00,216.00 423.00,216.00
             423.00,216.00 442.00,205.00 442.00,205.00 Z
           M 170.67,282.00
           C 170.67,282.00 168.00,301.33 168.00,301.33
             168.00,301.33 144.00,300.00 144.00,300.00
             144.00,300.00 144.00,281.00 144.00,281.00
             144.00,281.00 170.67,282.00 170.67,282.00 Z
           M 475.33,287.33
           C 475.33,287.33 475.33,306.67 475.33,306.67
             475.33,306.67 452.00,306.00 452.00,306.00
             452.00,306.00 453.00,287.00 453.00,287.00
             453.00,287.00 475.33,287.33 475.33,287.33 Z
           M 189.00,343.00
           C 189.00,343.00 196.00,361.00 196.00,361.00
             196.00,361.00 174.00,369.00 174.00,369.00
             174.00,369.00 167.00,351.00 167.00,351.00
             167.00,351.00 189.00,343.00 189.00,343.00 Z
           M 444.00,370.00
           C 444.00,370.00 435.00,387.00 435.00,387.00
             435.00,387.00 413.00,375.00 413.00,375.00
             413.00,375.00 422.00,358.00 422.00,358.00
             422.00,358.00 444.00,370.00 444.00,370.00 Z
           M 253.00,406.00
           C 253.00,406.00 242.00,425.00 242.00,425.00
             242.00,425.00 225.00,416.00 225.00,416.00
             225.00,416.00 236.00,397.00 236.00,397.00
             236.00,397.00 253.00,406.00 253.00,406.00 Z
           M 372.00,401.00
           C 372.00,401.00 386.00,420.00 386.00,420.00
             382.23,424.82 375.71,429.78 370.00,432.00
             370.00,432.00 356.00,413.00 356.00,413.00
             359.69,408.57 366.70,403.26 372.00,401.00 Z
           M 317.00,425.00
           C 317.00,425.00 317.00,452.00 317.00,452.00
             317.00,452.00 298.00,452.00 298.00,452.00
             298.00,452.00 298.00,425.00 298.00,425.00
             298.00,425.00 317.00,425.00 317.00,425.00 Z" />
    </g>
    <g transform="scale(0.25) translate(900, 2050)">
      <circle cx="300" cy="300" r="300" fill="lightgray"></circle>
      <ellipse cx="145" cy="250" rx="45" ry="70" fill="white" stroke="gray" stroke-width="1"></ellipse>
      <ellipse cx="455" cy="250" rx="45" ry="70" fill="white" stroke="gray" stroke-width="1"></ellipse>
      <path id="Selection"
            fill="white" stroke="gray" stroke-width="1"
            d="M 238.00,224.00
              C 238.00,224.00 224.69,248.00 224.69,248.00
                224.69,248.00 216.50,262.75 219.25,263.88
                221.88,265.25 236.82,255.46 240.00,253.33
                240.00,253.33 270.00,233.67 270.00,233.67
                278.58,227.94 281.43,224.02 292.00,224.00
                292.00,224.00 370.00,224.00 370.00,224.00
                372.39,224.00 375.78,224.13 377.98,223.26
                386.31,219.98 384.00,206.42 384.00,199.00
                384.00,199.00 384.00,121.00 384.00,121.00
                383.99,117.15 384.33,113.33 381.57,110.23
                378.85,107.16 375.79,107.06 372.00,107.00
                372.00,107.00 237.00,107.00 237.00,107.00
                225.54,107.02 223.02,109.54 223.00,121.00
                223.00,121.00 223.00,210.00 223.00,210.00
                223.02,222.43 226.23,223.99 238.00,224.00 Z
              M 90.96,338.00
              C 90.96,338.00 90.96,353.00 90.96,353.00
                90.96,353.00 89.00,407.00 89.00,407.00
                89.00,407.00 89.33,432.00 89.33,432.00
                104.67,453.33 106.67,455.33 118.00,466.67
                138.00,483.33 146.00,491.33 159.33,500.67
                176.00,514.00 190.00,526.00 202.67,519.33
                204.67,514.00 204.98,492.53 205.00,480.00
                205.00,480.00 206.00,354.00 206.00,354.00
                206.00,354.00 205.00,340.00 205.00,340.00
                205.00,340.00 176.00,340.00 176.00,340.00
                173.53,355.76 162.89,365.13 147.00,365.90
                130.67,366.67 120.34,347.51 121.00,340.00
                121.00,340.00 90.96,338.00 90.96,338.00 Z
              M 398.00,503.33
              C 397.96,528.07 395.19,493.10 400.00,517.00
                404.81,516.60 422.71,511.16 427.33,510.00
                456.67,495.33 448.04,499.84 472.00,482.67
                488.79,470.63 500.67,454.67 511.33,437.33
                511.33,437.33 515.00,357.00 515.00,357.00
                515.00,354.50 515.38,349.70 513.26,347.99
                511.82,346.83 508.78,347.01 507.00,347.00
                507.00,347.00 485.00,347.00 485.00,347.00
                485.20,354.77 476.67,375.33 456.67,375.33
                440.35,376.47 430.80,363.40 430.00,347.00
                430.00,347.00 401.00,347.00 401.00,347.00
                398.85,363.30 400.69,350.60 400.67,366.67
                400.67,366.67 398.00,503.33 398.00,503.33 Z" />
      </g>
        <g transform="scale(0.25) translate(1650, 1750)">
  <circle cx="300" cy="300" r="300" fill="#ff9999"></circle>
        <path id="Selection"
            fill="white" stroke="#803030" stroke-width="1"
        d="M 78.00,363.33
           C 78.00,363.33 75.08,369.79 75.33,371.33
             75.58,372.79 80.67,381.33 80.67,381.33
             80.67,381.33 90.67,387.33 100.00,388.67
             102.18,389.62 107.94,389.88 110.67,389.33
             113.21,388.79 121.33,381.33 121.33,381.33
             129.33,374.67 263.79,194.58 270.00,188.67
             274.50,172.67 284.17,144.79 282.00,138.67
             276.25,135.42 234.00,162.00 234.00,162.00
             234.00,162.00 78.00,363.33 78.00,363.33 Z
           M 307.36,171.00
           C 305.55,172.00 303.91,174.55 303.91,174.55
             301.45,178.18 291.53,190.41 286.63,197.00
             286.63,197.00 118.00,424.00 118.00,424.00
             118.00,424.00 121.16,446.93 121.33,454.67
             121.33,454.67 128.00,462.67 128.00,462.67
             128.00,462.67 364.67,470.00 364.67,470.00
             364.67,470.00 382.00,470.00 382.00,470.00
             382.00,470.00 394.67,442.67 394.67,442.67
             394.67,442.67 416.00,408.00 416.00,408.00
             416.00,408.00 514.00,246.67 514.00,246.67
             514.00,246.67 526.48,223.70 526.67,221.33
             526.48,218.88 526.67,186.00 526.67,186.00
             526.39,179.45 527.35,176.12 521.33,174.00
             519.54,173.36 507.33,174.00 507.33,174.00
             505.24,168.64 505.64,160.55 502.00,156.00
             501.09,152.61 493.30,150.79 492.00,150.67
             489.67,150.70 366.67,144.67 366.67,144.67
             362.50,144.69 348.96,143.10 346.00,144.67
             340.17,147.32 327.06,169.21 325.33,170.67
             323.06,171.94 315.91,170.82 312.09,170.82
             310.36,170.82 309.27,170.55 307.36,171.00 Z
           M 254.64,165.82
           C 256.74,164.32 260.02,162.62 262.27,161.64
             263.78,160.98 264.68,160.61 265.00,161.00
             265.36,161.21 265.05,162.14 264.91,163.36
             264.63,165.75 263.98,169.41 263.09,172.00
             262.56,173.54 262.42,174.82 262.00,175.00
             261.51,175.00 260.50,174.34 259.64,173.91
             257.82,172.64 255.86,171.38 254.18,169.91
             253.15,169.01 252.04,168.41 252.00,168.00
             251.96,167.46 253.23,166.82 254.64,165.82 Z
           M 152.00,422.00
           C 152.00,422.00 134.00,421.00 134.00,421.00
             134.00,421.00 299.87,197.00 299.87,197.00
             302.52,193.47 309.18,183.00 310.91,181.91
             312.71,181.19 313.38,181.64 315.36,181.64
             315.36,181.64 487.82,183.27 487.82,183.27
             487.82,183.27 507.00,184.00 507.00,184.00
             505.04,190.15 390.32,373.00 390.32,373.00
             390.32,373.00 366.58,411.00 366.58,411.00
             357.99,424.79 359.20,424.98 350.00,425.00
             350.00,425.00 152.00,422.00 152.00,422.00 Z
           M 334.00,199.00
           C 334.00,199.00 324.36,214.55 324.36,214.55
             324.36,214.55 450.67,214.00 450.67,214.00
             450.67,214.00 462.36,198.36 462.36,198.36
             462.36,198.36 334.00,199.00 334.00,199.00 Z
           M 321.82,224.55
           C 321.82,224.55 311.09,241.82 311.09,241.82
             311.09,241.82 432.00,240.67 432.00,240.67
             432.00,240.67 442.67,226.67 442.67,226.67
             442.67,226.67 321.82,224.55 321.82,224.55 Z
           M 300.00,252.67
           C 300.00,252.67 277.36,279.09 276.55,281.82
             276.96,287.73 277.30,287.78 279.55,292.91
             279.55,292.91 393.62,295.83 396.00,295.33
             397.60,294.73 412.88,271.25 421.75,262.12
             424.25,259.62 424.75,257.75 423.00,254.50
             421.62,251.88 418.88,252.00 416.38,251.75
             413.62,250.88 390.00,252.00 390.00,252.00
             390.00,252.00 320.45,253.18 312.00,252.72
             308.55,252.73 304.36,252.73 300.00,252.67 Z
           M 271.33,299.33
           C 271.33,299.33 260.00,316.00 260.00,316.00
             260.00,316.00 295.00,317.00 295.00,317.00
             295.00,317.00 307.33,301.33 307.33,301.33
             307.33,301.33 271.33,299.33 271.33,299.33 Z
           M 317.33,300.67
           C 317.33,300.67 307.00,317.00 307.00,317.00
             307.00,317.00 350.00,317.00 350.00,317.00
             350.00,317.00 361.33,301.33 361.33,301.33
             361.33,301.33 317.33,300.67 317.33,300.67 Z
           M 219.00,363.00
           C 219.00,363.00 222.00,371.00 222.00,371.00
             222.00,371.00 331.00,374.30 331.00,374.30
             331.00,374.30 342.67,374.00 342.67,374.00
             342.67,374.00 372.00,333.00 372.00,333.00
             372.00,333.00 370.00,326.00 370.00,326.00
             370.00,326.00 261.00,325.00 261.00,325.00
             261.00,325.00 249.18,324.28 249.18,324.28
             249.18,324.28 239.58,336.00 239.58,336.00
             239.58,336.00 219.00,363.00 219.00,363.00 Z
           M 109.45,352.73
           C 112.00,354.00 113.82,354.36 117.27,355.45
             118.80,356.27 120.44,356.69 120.91,357.64
             121.07,358.63 119.36,360.00 118.00,362.00
             115.09,365.27 113.82,367.09 110.73,370.36
             109.12,371.55 106.89,373.78 105.82,373.82
             102.36,374.55 94.55,370.36 93.00,368.00
             92.67,366.77 94.42,365.04 95.09,363.45
             96.73,361.27 99.27,358.36 101.64,355.45
             103.26,354.18 104.12,352.47 105.45,352.18
             106.53,351.95 107.63,352.40 109.45,352.73 Z
           M 207.33,388.67
           C 207.33,388.67 193.33,407.33 193.33,407.33
             193.33,407.33 322.67,410.67 322.67,410.67
             322.67,410.67 334.67,393.33 334.67,393.33
             334.67,393.33 207.33,388.67 207.33,388.67 Z" />
    </g>
  </g>
</svg>
