<?xml version="1.0" encoding="UTF-8" standalone="no"?>
<!DOCTYPE svg PUBLIC "-//W3C//DTD SVG 20010904//EN"
              "http://www.w3.org/TR/2001/REC-SVG-20010904/DTD/svg10.dtd">

<svg xmlns="http://www.w3.org/2000/svg"
     width="auto" height="100%"
     viewBox="0 0 600 613">
<defs>
  <pattern id="circles"
         x="10" y="10" width="50" height="50"
         patternUnits="userSpaceOnUse"
         patternTransform="rotate(240)"
        >

    <circle cx="10" cy="10" r="30" style="stroke: none; fill: #bfdedd" />

  </pattern>
</defs>
  <circle cx="300" cy="300" r="300" fill="url(#circles)"></circle>


  <path id="Laptop"
        fill="#b5aa9c" stroke="black" stroke-width="1"
        d="M 288.50,546.50
           C 288.50,546.50 287.50,560.00 287.50,560.00
             287.50,560.00 399.50,551.00 399.50,551.00
             399.50,551.00 507.50,554.00 507.50,554.00
             507.50,554.00 514.00,545.00 514.00,545.00
             514.00,545.00 510.00,542.00 510.00,541.50
             510.00,541.00 516.50,539.00 517.00,539.00
             517.50,539.00 564.50,418.50 564.50,418.50
             564.50,418.50 563.00,410.50 563.00,410.50
             563.00,410.50 557.50,407.00 557.50,407.00
             557.50,407.00 511.00,386.00 511.00,386.00
             511.00,386.00 435.50,355.00 435.50,355.00
             435.50,355.00 426.00,353.50 426.00,353.50
             426.00,353.50 418.50,361.50 418.50,361.50
             418.50,361.50 414.50,374.50 414.50,374.50
             414.50,374.50 391.50,521.50 391.50,521.50
             391.50,521.50 395.00,531.00 395.00,531.00
             395.00,531.00 397.50,536.50 397.50,536.50
             397.50,536.50 387.00,538.00 387.00,538.00
             387.00,538.00 288.50,546.50 288.50,546.50 Z" />


  <path id="Hair"
        fill="#b8763d" stroke="black" stroke-width="1"
        d="M 190.00,132.50
           C 190.00,132.50 168.50,168.50 168.50,168.50
             168.50,168.50 149.50,193.00 149.50,193.00
             149.50,193.00 134.50,179.00 134.50,179.00
             134.50,179.00 123.00,180.50 123.00,180.50
             123.00,180.50 115.00,194.00 115.00,194.00
             115.00,194.00 111.50,207.50 111.50,207.50
             111.50,207.50 113.00,221.50 113.00,221.50
             113.00,221.50 105.50,215.00 105.50,215.00
             105.50,215.00 95.50,199.00 95.50,199.00
             95.50,199.00 90.86,185.96 89.50,175.00
             88.11,163.72 90.00,148.00 90.00,148.00
             90.00,148.00 95.50,126.50 95.50,126.50
             95.50,126.50 113.00,99.50 113.00,99.50
             113.00,99.50 125.00,84.50 125.00,84.50
             125.00,84.50 150.50,67.50 150.50,67.50
             150.50,67.50 174.50,57.00 174.50,57.00
             174.50,57.00 194.00,50.50 194.00,50.50
             194.00,50.50 227.00,52.00 227.00,52.00
             227.00,52.00 275.00,72.00 275.00,72.00
             275.00,72.00 311.50,99.50 311.50,99.50
             311.50,99.50 323.00,117.00 323.00,117.00
             323.00,117.00 325.00,151.00 325.00,151.00
             325.00,151.00 320.50,180.50 320.50,180.50
             320.50,180.50 312.00,201.50 312.00,201.50
             312.00,201.50 295.50,192.50 295.00,192.00
             294.50,191.50 272.50,190.50 272.50,190.50
             272.50,190.50 251.50,180.50 251.50,180.50
             251.50,180.50 227.50,164.50 227.50,164.50
             227.50,164.50 208.50,149.00 208.50,149.00
             208.50,149.00 190.00,132.50 190.00,132.50 Z
           M 144.50,262.50
           C 144.50,262.50 151.00,263.50 151.00,263.50
             151.00,263.50 151.60,270.56 154.50,276.50
             158.50,280.24 162.50,287.00 162.50,287.00
             162.50,287.00 162.00,313.50 162.00,313.50
             162.00,313.50 163.50,324.50 164.00,324.50
             164.50,324.50 179.00,344.00 179.00,344.00
             179.00,344.00 184.00,364.00 184.00,364.00
             184.00,364.00 191.50,410.50 191.50,410.50
             191.50,410.50 196.00,435.00 195.50,435.00
             195.00,435.00 175.00,406.00 175.00,406.00
             175.00,406.00 161.00,396.00 161.00,396.00
             161.00,396.00 135.50,387.00 135.50,387.00
             135.50,387.00 107.50,378.00 107.50,378.00
             107.50,378.00 85.50,357.00 86.00,357.00
             86.28,357.00 81.26,342.92 80.50,335.00
             79.88,328.58 83.50,323.50 83.50,323.50
             83.50,323.50 91.00,307.00 91.50,306.50
             92.00,306.00 106.50,289.50 106.50,289.50
             106.50,289.50 123.50,273.00 123.50,273.00
             123.50,273.00 132.50,266.50 132.50,266.50
             132.50,266.50 144.50,262.50 144.50,262.50 Z" />


  <path id="Skin"
        fill="#fccfa7" stroke="none" stroke-width="1"
        d="M 190.50,132.50
           C 190.50,132.50 224.50,162.00 225.00,162.00
             225.50,162.00 264.50,185.50 264.50,185.50
             264.50,185.50 297.50,193.00 297.50,193.00
             297.50,193.00 310.50,206.50 310.50,206.50
             310.50,206.50 310.50,233.50 310.50,233.50
             310.50,233.50 298.00,270.00 298.00,270.00
             298.00,270.00 278.50,299.50 278.50,299.50
             278.50,299.50 259.00,328.00 259.00,328.00
             259.00,328.00 244.50,335.50 244.50,335.50
             244.50,335.50 228.00,332.00 228.00,332.00
             228.00,332.00 217.00,326.50 217.00,326.50
             217.00,326.50 208.50,339.00 208.50,339.00
             208.50,339.00 208.00,348.00 208.00,348.00
             208.00,348.00 219.00,361.50 219.00,361.50
             219.00,361.50 239.00,387.00 239.00,388.00
             239.00,389.00 250.00,406.50 250.00,406.50
             250.00,406.50 241.00,399.00 241.00,399.00
             241.00,399.00 208.00,370.50 208.00,370.50
             208.00,370.50 173.50,339.50 173.50,339.50
             173.50,339.50 164.00,323.00 164.00,323.00
             164.00,323.00 161.50,296.50 161.50,296.50
             161.50,296.50 157.50,280.00 157.50,280.00
             157.50,280.00 151.50,268.50 151.50,268.50
             151.50,268.50 145.50,264.50 145.50,264.50
             145.50,264.50 134.00,265.50 133.00,265.00
             132.00,264.50 128.50,258.50 128.50,258.50
             128.50,258.50 113.00,222.50 113.00,222.50
             113.00,222.50 111.00,207.50 111.00,207.50
             111.00,207.50 117.50,186.00 117.50,186.00
             117.50,186.00 127.00,178.00 127.00,178.00
             127.00,178.00 136.00,181.00 136.50,181.50
             137.00,182.00 149.00,191.50 149.00,191.50
             149.00,191.50 162.00,178.00 162.00,178.00
             162.00,178.00 174.00,159.00 174.00,159.00
             174.00,159.00 190.50,132.50 190.50,132.50 Z
           M 292.50,545.00
           C 292.50,545.00 305.00,548.00 305.00,548.00
             305.00,548.00 343.00,542.50 343.00,542.50
             343.00,542.50 357.50,540.50 357.50,540.50
             357.50,540.50 367.50,539.50 367.50,539.50
             367.50,539.50 360.00,529.00 360.00,529.00
             360.00,529.00 353.00,522.50 353.00,522.50
             353.00,522.50 343.50,524.00 343.50,524.00
             343.50,524.00 336.50,523.50 336.50,523.50
             336.50,523.50 330.00,518.50 330.00,518.50
             330.00,518.50 315.00,522.50 315.00,522.50
             315.00,522.50 301.00,522.00 301.00,522.00
             301.00,522.00 293.00,522.00 293.00,522.00
             293.00,522.00 291.00,526.50 291.00,526.50
             291.00,526.50 292.50,545.00 292.50,545.00 Z" />

  <path id="SuitBody"
        fill="#4a4870" stroke="none" stroke-width="1"
        d="M 111.50,380.00
           C 111.50,380.00 161.50,396.00 161.50,396.00
             161.50,396.00 180.00,411.00 180.00,411.00
             180.00,411.00 194.00,432.50 194.00,432.50
             194.00,432.50 191.50,400.00 191.50,400.00
             191.50,400.00 187.50,379.00 187.50,379.00
             187.50,379.00 195.00,383.50 195.00,383.50
             195.00,383.50 202.00,377.00 202.00,377.00
             202.00,377.00 206.00,390.50 206.00,390.50
             206.00,390.50 256.50,422.50 256.50,422.50
             256.50,422.50 261.00,436.50 261.00,437.00
             261.00,437.50 266.00,490.00 266.00,490.00
             266.00,490.00 267.50,505.50 267.50,505.50
             267.50,505.50 288.50,508.50 288.50,509.00
             288.50,509.50 289.50,514.00 289.50,514.00
             289.50,514.00 285.50,520.00 285.50,520.00
             285.50,520.00 279.50,521.50 279.50,521.50
             279.50,521.50 280.50,544.00 280.00,544.00
             279.50,544.00 223.00,557.00 223.00,557.00
             223.00,557.00 156.00,571.00 156.00,571.00
             156.00,571.00 128.00,496.00 128.00,496.00
             128.00,496.00 105.50,430.50 105.50,430.50
             105.50,430.50 91.00,395.00 91.00,395.00
             91.00,395.00 94.50,387.00 94.50,387.00
             94.50,387.00 111.50,380.00 111.50,380.00 Z" />


  <path id="SuitCollar"
        fill="white" stroke="black" stroke-width="1"
        d="M 177.50,342.50
           C 177.50,342.50 247.50,408.00 247.50,408.00
             247.50,408.00 257.50,425.50 257.50,425.50
             257.50,425.50 242.50,414.50 242.50,414.50
             242.50,414.50 213.27,396.55 213.27,396.55
             213.27,396.55 205.27,390.18 205.27,390.18
             205.27,390.18 202.50,376.00 202.50,376.00
             202.50,376.00 195.00,384.00 195.00,384.00
             195.00,384.00 188.50,380.00 188.50,380.00
             188.50,380.00 183.50,363.00 183.50,362.50
             183.50,362.00 180.00,352.50 180.00,352.50
             180.00,352.50 177.50,342.50 177.50,342.50 Z
           M 288.73,510.91
           C 288.73,510.91 300.50,510.00 300.50,510.00
             300.50,510.00 302.36,522.18 302.36,522.18
             302.36,522.18 291.45,523.27 291.45,523.27
             291.45,523.27 290.55,528.18 290.55,528.18
             290.55,528.18 290.55,535.82 290.55,535.82
             290.55,535.82 291.27,547.27 291.27,547.27
             291.27,547.27 278.18,546.73 278.18,546.73
             278.18,546.73 278.05,532.82 278.55,531.82
             279.05,530.82 278.91,520.73 278.91,520.73
             278.91,520.73 287.09,518.18 287.09,518.18
             287.09,518.18 288.73,510.91 288.73,510.91 Z
           M 297.64,522.36" />


  <path id="Lineart"
        fill="#33323d" stroke="none" stroke-width="1"
        d="M 537.62,398.12
           C 537.62,398.12 556.50,405.50 559.88,408.38
             562.62,411.88 561.88,409.62 562.88,413.38
             564.58,420.30 557.21,435.46 554.50,442.25
             554.50,442.25 542.50,472.62 542.50,472.62
             542.50,472.62 526.25,511.88 526.25,511.88
             526.25,511.88 519.25,530.38 519.25,530.38
             516.28,537.29 516.07,540.38 507.12,539.88
             507.12,539.88 434.00,533.09 434.00,533.09
             434.00,533.09 401.88,530.88 401.88,530.88
             397.66,530.59 398.12,530.75 393.88,528.12
             392.88,525.62 392.88,525.62 392.75,520.75
             393.00,513.88 415.00,389.25 415.00,389.25
             416.92,380.52 419.23,359.79 426.75,354.75
             429.59,352.98 433.71,354.63 436.75,355.50
             442.75,357.38 453.23,361.06 458.62,363.62
             462.71,366.00 502.62,383.12 502.62,383.12
             502.62,383.12 533.12,395.75 533.12,395.75
             536.00,397.38 537.62,398.12 537.62,398.12 Z
           M 109.00,210.00
           C 108.68,213.75 109.38,217.25 109.38,217.25
             107.68,215.67 101.51,206.41 98.25,198.62
             94.37,189.36 92.15,178.93 91.62,174.50
             90.75,167.38 91.62,153.12 92.75,146.25
             93.55,140.88 97.12,130.25 97.12,130.25
             97.12,130.25 103.00,118.38 103.00,118.38
             107.62,110.00 110.01,104.53 118.66,94.72
             124.04,88.62 127.38,84.00 137.88,75.75
             137.88,75.75 165.75,61.50 171.38,59.38
             177.50,57.88 190.42,52.14 198.00,52.00
             211.12,51.76 211.62,52.25 222.38,53.62
             228.00,55.12 239.95,59.57 243.00,60.66
             254.09,64.61 265.17,69.93 275.38,75.75
             289.57,83.85 313.12,100.62 320.25,115.25
             322.00,123.38 321.80,127.00 322.50,134.38
             322.50,150.38 323.12,161.25 319.25,177.00
             317.00,183.88 314.12,193.50 311.00,198.00
             302.24,196.14 304.28,191.62 294.12,189.00
             287.33,187.25 280.07,189.24 272.75,187.00
             256.92,182.15 256.17,179.97 243.00,171.88
             230.71,164.32 218.64,155.89 208.00,146.08
             202.47,140.99 194.62,134.54 191.00,128.00
             191.00,128.00 189.00,128.00 189.00,128.00
             185.75,135.30 180.37,145.22 176.12,152.00
             174.30,154.89 159.42,177.55 152.00,185.38
             150.41,187.05 148.36,188.30 147.75,188.25
             146.10,188.11 143.94,185.54 142.62,184.75
             142.62,184.75 130.86,176.20 127.05,176.52
             117.26,177.33 113.37,191.69 111.50,199.88
             111.50,199.88 109.36,205.72 109.00,210.00 Z
           M 191.00,135.00
           C 198.46,142.45 225.16,163.86 233.75,169.75
             233.75,169.75 243.00,175.85 243.00,175.85
             249.05,179.75 264.58,189.79 271.12,191.12
             267.50,194.25 265.79,196.87 264.12,201.12
             262.54,205.18 263.12,209.00 263.62,214.38
             265.10,209.52 265.17,205.45 268.38,201.25
             270.86,197.99 276.05,194.42 280.75,195.25
             280.75,195.25 279.64,198.43 278.62,200.75
             277.70,202.87 276.25,208.75 276.12,211.88
             276.25,218.12 275.75,215.75 276.38,219.00
             279.75,222.00 284.67,221.33 291.12,221.62
             296.84,221.89 297.62,221.62 301.12,221.12
             301.12,221.12 304.75,219.88 307.12,219.12
             307.56,225.89 305.12,240.88 305.12,240.88
             305.12,240.88 302.12,254.00 302.12,254.00
             300.95,258.20 295.00,272.38 295.00,272.38
             295.00,272.38 287.75,286.38 287.75,286.38
             287.75,286.38 270.08,312.14 267.00,316.25
             260.81,324.52 255.40,332.64 244.25,333.75
             238.82,334.29 230.03,330.72 225.00,328.57
             225.00,328.57 209.00,321.73 209.00,321.73
             203.03,318.78 180.53,304.14 176.09,299.83
             176.09,299.83 165.89,286.88 165.89,286.88
             157.61,276.84 155.12,274.59 151.00,262.00
             151.00,262.00 147.00,264.00 147.00,264.00
             147.87,267.32 147.79,270.87 149.27,274.00
             152.47,280.74 164.88,293.66 160.00,306.00
             162.12,308.53 161.00,315.56 161.00,319.00
             161.00,319.00 149.00,312.00 149.00,312.00
             157.63,321.03 172.12,339.24 177.30,350.43
             181.12,355.38 184.88,371.38 186.50,380.75
             187.50,385.00 188.82,393.86 190.00,403.33
             191.27,413.49 192.65,423.84 192.88,428.50
             187.92,425.72 184.16,416.57 181.00,412.00
             177.68,407.20 171.59,401.08 166.75,397.88
             161.27,394.27 160.12,394.38 154.50,391.62
             154.50,391.62 132.00,384.50 132.00,384.50
             127.57,382.94 114.00,378.62 114.00,378.62
             114.00,378.62 109.38,376.50 109.38,376.50
             103.88,372.38 102.53,373.12 93.88,361.88
             86.32,352.07 81.00,335.05 84.62,322.88
             87.05,314.74 97.47,301.04 102.88,294.62
             106.86,289.89 127.50,270.50 133.12,267.50
             137.38,267.12 138.88,268.38 146.12,262.50
             146.12,262.50 145.00,261.00 145.00,261.00
             142.98,261.72 140.78,263.46 138.62,263.75
             134.75,263.25 132.63,263.34 131.12,262.00
             129.00,259.88 129.12,254.88 128.12,250.75
             128.12,250.75 124.75,243.00 124.75,243.00
             120.92,232.08 113.40,222.18 112.75,210.25
             112.75,210.25 114.38,201.00 114.38,201.00
             116.62,194.38 118.75,186.88 125.62,182.50
             128.19,181.14 133.64,182.71 138.88,186.38
             142.33,188.79 146.42,191.92 147.88,194.50
             156.87,188.06 171.91,165.15 178.08,155.00
             181.66,149.09 186.03,139.26 191.00,135.00 Z
           M 168.75,179.00
           C 172.38,181.31 174.33,178.91 178.25,178.00
             185.56,176.11 187.50,175.25 195.38,175.00
             201.90,174.98 207.75,174.50 215.38,175.00
             223.12,175.12 233.25,179.25 233.25,179.25
             232.05,175.21 228.00,172.38 224.75,170.38
             221.00,170.00 216.99,169.93 212.62,169.88
             195.31,169.67 184.02,170.37 168.75,179.00 Z
           M 211.88,218.38
           C 218.34,218.37 224.22,218.44 230.25,216.00
             230.25,216.00 236.88,213.25 236.88,213.25
             236.84,209.15 235.58,205.07 234.12,201.12
             231.54,194.52 227.38,192.75 224.50,190.12
             218.88,186.38 215.61,185.64 205.38,183.88
             199.75,184.12 194.45,184.47 192.00,185.12
             187.25,187.25 180.98,190.67 177.25,193.62
             172.99,197.00 168.89,201.02 166.00,205.12
             167.51,207.90 168.00,208.25 170.75,211.12
             172.39,211.98 176.35,214.33 178.12,214.62
             177.67,212.49 173.96,208.95 174.50,207.00
             174.79,205.96 176.37,202.90 180.25,199.50
             184.20,196.03 190.56,193.43 191.38,192.75
             196.00,191.62 197.25,191.50 204.12,191.25
             200.00,198.00 200.12,198.12 198.75,203.50
             198.68,205.49 198.49,211.40 198.88,213.38
             199.79,217.44 211.88,218.38 211.88,218.38 Z
           M 256.50,216.25
           C 256.50,216.25 255.88,217.00 256.12,217.88
             259.12,226.12 267.64,249.33 268.12,252.00
             266.25,255.38 260.50,259.50 260.50,259.50
             260.50,259.50 252.00,265.00 252.00,265.00
             252.62,266.75 253.00,266.88 255.00,267.75
             258.08,266.45 269.25,257.75 272.12,253.50
             272.12,253.50 256.50,216.25 256.50,216.25 Z
           M 234.38,289.50
           C 240.23,290.68 246.11,291.09 250.50,290.50
             254.16,290.00 257.10,288.79 260.38,287.25
             260.38,287.25 259.12,284.88 259.12,284.88
             259.12,284.88 253.62,287.88 249.50,288.75
             246.12,289.12 246.62,289.12 242.00,289.12
             235.62,288.50 237.12,288.50 230.00,287.00
             225.12,285.00 222.00,282.62 218.38,280.62
             221.75,284.62 227.61,288.13 234.38,289.50 Z
           M 163.00,292.00
           C 163.00,292.00 163.00,293.00 163.00,293.00
             163.00,293.00 162.00,292.00 162.00,292.00
             162.00,292.00 163.00,292.00 163.00,292.00 Z
           M 164.11,293.00
           C 177.07,305.47 196.96,317.62 212.75,326.62
             211.12,331.14 205.75,340.00 204.75,343.75
             206.12,347.38 213.67,357.27 216.42,361.00
             216.42,361.00 234.88,387.00 234.88,387.00
             237.98,391.63 243.08,398.03 245.12,403.25
             245.12,403.25 183.02,348.19 174.61,338.00
             168.87,331.04 164.12,327.43 164.11,318.00
             164.11,318.00 164.11,306.67 164.11,306.67
             164.38,302.02 162.71,296.52 164.11,293.00 Z
           M 179.25,345.62
           C 179.25,345.62 219.62,383.38 231.12,393.25
             239.12,401.12 244.53,407.14 247.12,409.62
             250.75,414.12 253.28,418.33 253.88,419.88
             246.14,416.65 210.88,394.25 206.38,390.00
             205.03,387.88 204.25,377.62 203.25,375.00
             200.62,373.75 196.88,381.38 193.62,382.62
             190.62,381.12 189.50,380.62 188.00,378.38
             188.00,378.38 184.12,359.62 184.12,359.62
             183.16,355.50 180.62,349.75 179.25,345.62 Z
           M 404.62,519.62
           C 404.43,520.84 403.70,523.91 406.62,525.75
             406.62,525.75 405.50,523.00 405.50,523.00
             405.50,523.00 405.75,518.00 405.75,518.00
             405.75,518.00 410.88,482.62 410.88,482.62
             410.88,482.62 425.00,397.00 425.00,397.00
             425.00,397.00 429.38,368.38 431.62,362.75
             435.50,359.00 437.00,358.00 437.00,358.00
             434.62,358.83 433.72,358.94 432.00,361.00
             429.25,364.50 429.77,363.16 428.75,369.25
             428.75,369.25 419.43,417.00 419.43,417.00
             419.43,417.00 405.88,509.00 405.88,509.00
             405.60,511.10 404.38,518.25 404.62,519.62 Z
           M 246.75,517.12
           C 247.09,516.18 247.64,516.36 247.00,515.50
             246.12,514.62 219.25,514.88 212.75,513.50
             205.90,512.78 200.53,506.57 197.62,515.50
             198.39,515.11 196.88,515.12 199.50,515.00
             202.62,510.12 202.67,512.89 214.25,515.38
             214.25,515.38 231.38,516.50 231.38,516.50
             231.38,516.50 245.50,517.62 246.75,517.12 Z
           M 174.18,440.27
           C 174.18,440.27 177.64,458.45 177.64,458.45
             177.64,458.45 184.19,491.22 185.18,499.45
             186.28,505.85 185.55,502.73 187.00,505.00
             187.55,501.00 180.19,463.78 177.82,453.91
             176.94,450.28 175.56,440.90 174.18,440.27 Z
           M 291.12,513.00
           C 292.93,512.55 298.88,512.38 299.62,513.38
             300.38,514.25 298.75,518.75 297.75,520.50
             293.50,520.75 291.75,521.38 289.75,521.50
             289.03,522.87 289.46,522.04 289.25,525.00
             288.83,530.94 290.00,542.50 289.62,545.75
             288.62,546.34 287.07,546.36 284.64,545.82
             282.27,545.45 283.09,545.91 279.62,545.00
             279.88,542.38 279.88,521.12 279.88,521.12
             281.25,520.25 284.12,520.12 287.25,519.38
             288.62,517.25 289.50,515.25 291.12,513.00 Z
           M 297.12,523.38
           C 300.00,523.12 301.50,524.38 301.50,524.38
             304.03,524.73 309.97,524.72 313.62,524.25
             318.22,523.65 326.38,520.50 329.88,521.12
             332.53,522.06 343.46,532.75 348.25,536.88
             352.76,540.76 351.36,538.84 350.88,539.88
             350.38,542.12 345.14,542.04 343.62,542.50
             339.70,543.69 306.12,545.75 306.12,545.75
             301.88,544.00 296.88,543.62 292.12,540.00
             291.88,535.75 291.25,526.62 292.12,524.38
             293.33,523.92 294.38,523.50 297.12,523.38 Z
           M 359.88,531.88
           C 361.80,534.85 364.19,536.73 364.75,539.50
             362.47,539.48 357.78,541.07 355.62,540.25
             352.95,539.23 349.76,535.24 346.62,532.38
             343.98,529.96 341.46,527.73 341.75,526.12
             342.86,525.08 345.57,525.68 347.75,525.50
             349.73,525.34 351.20,524.32 352.25,524.75
             354.96,525.54 357.62,529.00 359.88,531.88 Z
           M 507.25,542.62
           C 508.82,542.66 509.25,542.12 510.88,543.12
             511.75,545.25 511.06,546.34 510.25,548.88
             509.88,550.03 508.62,552.00 507.50,553.50
             505.38,554.25 503.30,553.91 501.38,553.88
             496.78,553.78 421.62,550.62 421.62,550.62
             417.37,550.58 403.25,550.62 400.38,548.75
             399.75,545.50 399.89,542.34 399.88,540.50
             399.88,540.50 400.00,537.00 400.00,537.00
             400.00,537.00 414.50,537.50 414.50,537.50
             414.50,537.50 435.88,538.62 435.88,538.62
             435.88,538.62 496.75,542.50 496.75,542.50
             496.75,542.50 504.03,542.55 507.25,542.62 Z
           M 397.00,550.00
           C 397.00,550.00 385.83,550.99 385.83,550.99
             385.83,550.99 349.88,554.88 349.88,554.88
             349.88,554.88 289.88,559.50 288.62,558.88
             288.50,557.62 288.62,551.25 289.00,550.00
             290.50,549.00 325.00,546.28 325.00,546.28
             325.00,546.28 341.00,545.03 341.00,545.03
             341.00,545.03 369.75,541.62 369.75,541.62
             369.75,541.62 387.50,539.88 387.50,539.88
             387.50,539.88 396.12,539.12 396.12,539.12
             396.12,539.12 397.00,550.00 397.00,550.00 Z
           M 134.62,248.75
           C 134.62,248.75 133.38,243.00 132.50,238.12
             131.38,236.12 129.12,232.88 129.12,232.88
             129.12,232.88 128.00,230.12 126.38,226.25
             126.88,221.62 128.00,214.00 128.00,214.00
             125.06,217.09 124.51,222.37 124.12,224.38
             124.38,228.38 124.75,228.25 126.12,232.25
             126.12,232.25 130.38,238.50 130.38,238.50
             130.88,242.50 131.62,248.75 134.38,252.50
             137.96,255.28 139.50,253.00 143.12,255.25
             143.12,255.25 145.62,258.00 145.62,258.00
             146.37,253.39 145.94,251.00 143.62,246.88
             142.29,244.49 139.38,241.00 138.12,238.38
             138.25,236.50 140.59,231.95 141.25,230.12
             144.59,220.88 148.62,211.75 142.88,204.88
             141.34,202.83 139.39,200.57 137.38,199.00
             135.80,197.77 131.25,194.75 128.12,193.50
             124.62,195.25 121.75,201.75 121.75,205.88
             122.17,207.27 122.07,205.73 123.00,206.62
             124.95,201.19 123.40,199.82 128.75,197.25
             135.25,200.25 139.62,204.75 142.62,210.88
             143.12,215.88 140.44,223.01 138.75,226.75
             136.75,231.19 134.94,233.66 134.50,238.50
             134.50,238.50 135.88,240.62 137.38,242.75
             141.12,246.75 141.16,246.60 142.75,251.38
             140.75,252.25 137.12,251.62 137.12,251.62
             134.88,249.38 134.62,248.75 134.62,248.75 Z
           M 564.12,421.12
           C 565.79,415.15 566.93,411.73 562.62,407.75
             561.38,406.60 558.53,405.42 557.00,404.69
             554.40,403.44 525.19,390.26 520.62,388.38
             520.62,388.38 491.16,375.53 484.88,372.88
             484.88,372.88 444.00,354.75 444.00,354.75
             438.84,352.52 430.79,348.29 425.25,350.38
             418.00,353.11 415.02,365.95 413.62,372.88
             413.62,372.88 391.59,509.00 391.59,509.00
             390.80,513.70 389.25,525.75 390.25,529.88
             391.31,531.65 393.59,531.65 395.25,532.62
             394.33,533.30 394.88,534.88 393.50,535.50
             390.71,536.76 385.97,537.12 382.00,537.75
             376.21,538.67 370.46,539.17 367.38,538.00
             364.62,534.62 361.29,529.57 357.62,525.00
             355.78,522.70 354.60,520.54 352.62,520.25
             351.08,520.03 347.17,521.56 344.88,522.25
             337.85,523.49 340.88,523.88 338.75,524.12
             337.00,522.75 337.25,522.38 334.50,520.25
             330.75,516.75 333.45,517.55 329.12,517.12
             323.29,517.86 308.75,524.25 304.75,522.00
             302.00,519.62 305.38,510.75 302.88,508.75
             300.88,507.25 275.38,508.38 268.75,506.62
             266.62,506.00 267.25,504.38 266.75,501.50
             266.25,499.00 264.17,459.00 264.17,459.00
             262.64,442.98 261.61,426.37 254.62,411.50
             250.76,403.28 229.28,373.88 222.75,365.00
             219.87,361.09 209.12,348.12 208.62,344.50
             209.38,341.00 215.24,332.65 217.00,329.00
             223.67,332.14 233.66,336.64 241.00,336.96
             256.92,337.65 264.64,322.19 273.38,311.38
             287.25,294.21 287.25,291.38 299.50,271.38
             301.83,266.70 304.38,259.88 306.50,255.00
             306.50,255.00 310.46,239.00 310.46,239.00
             311.73,232.22 312.92,223.89 313.00,217.00
             313.04,213.13 312.45,204.00 313.25,200.50
             313.25,200.50 321.25,182.75 321.25,182.75
             322.25,178.25 325.92,159.19 326.13,153.00
             326.13,153.00 326.13,135.00 326.13,135.00
             326.05,129.32 324.85,120.08 322.75,114.88
             317.70,102.36 297.43,86.54 286.12,79.00
             275.84,72.14 264.25,65.55 253.00,60.46
             248.82,58.57 242.88,56.38 238.00,54.62
             228.62,51.62 225.47,51.38 218.00,49.60
             218.00,49.60 204.00,48.51 204.00,48.51
             191.62,49.38 184.25,51.25 172.25,55.12
             172.25,55.12 151.38,65.12 151.38,65.12
             148.37,66.11 137.87,72.41 137.87,72.41
             126.72,81.92 113.82,93.09 105.50,105.50
             105.50,105.50 95.50,122.00 93.62,127.50
             91.25,132.50 90.75,136.50 88.88,142.25
             88.14,148.12 86.66,165.74 87.25,171.38
             87.76,176.20 92.38,192.62 94.25,197.12
             97.73,205.51 104.16,215.49 109.88,222.50
             111.38,225.00 111.75,224.75 113.38,225.62
             118.04,232.68 117.62,232.88 117.62,232.88
             117.62,232.88 120.46,238.51 122.75,245.25
             123.95,248.78 124.46,249.40 125.00,252.25
             125.00,252.25 126.38,259.25 126.38,259.25
             126.37,260.92 127.88,263.75 129.75,265.62
             126.38,268.50 103.88,289.00 96.88,296.88
             82.07,313.52 70.37,335.89 84.00,356.88
             87.69,362.56 93.11,366.60 97.12,370.12
             100.38,373.38 103.37,374.70 105.88,378.12
             105.88,378.12 85.00,392.00 85.00,392.00
             85.00,392.00 88.54,400.00 88.54,400.00
             88.54,400.00 112.00,457.25 112.00,457.25
             112.00,457.25 138.50,530.62 138.50,530.62
             138.50,530.62 150.75,562.62 150.75,562.62
             154.88,571.62 154.09,571.64 156.27,573.09
             158.73,573.45 160.69,572.86 163.00,572.36
             163.00,572.36 204.00,563.00 204.00,563.00
             204.00,563.00 245.00,554.58 245.00,554.58
             253.30,552.75 270.83,547.23 277.45,546.73
             280.88,547.12 283.80,547.92 285.62,548.25
             286.50,550.00 286.00,561.00 286.00,561.00
             286.00,561.00 397.00,552.38 397.00,552.38
             397.00,552.38 405.00,552.04 405.00,552.04
             405.00,552.04 419.00,553.00 419.00,553.00
             419.00,553.00 463.62,554.12 463.62,554.12
             481.22,554.15 504.00,556.50 508.75,554.88
             510.75,553.00 512.75,547.50 512.75,547.50
             512.75,547.50 513.00,542.00 513.00,542.00
             515.08,541.83 515.44,542.14 517.12,540.62
             518.91,539.01 524.27,522.49 525.88,519.00
             525.88,519.00 542.75,477.00 542.75,477.00
             545.82,467.85 555.00,445.75 557.25,441.00
             557.61,439.98 561.82,429.38 564.12,421.12 Z
           M 183.64,506.09
           C 182.39,506.34 180.01,509.90 177.64,512.27
             175.14,515.65 173.64,516.91 169.75,522.25
             167.18,526.00 165.43,529.26 163.00,535.12
             162.74,536.57 162.46,537.45 163.09,538.83
             163.96,540.33 164.00,540.12 165.50,539.38
             167.25,537.75 181.27,522.09 181.27,522.09
             181.27,522.09 189.82,511.27 189.82,511.27
             189.82,511.27 188.62,511.00 188.62,511.00
             188.62,511.00 181.75,520.12 181.75,520.12
             181.75,520.12 174.30,528.78 174.30,528.78
             174.30,528.78 166.00,539.43 164.50,537.88
             163.91,537.13 163.65,536.35 164.13,534.78
             165.48,531.39 169.00,525.88 171.12,522.50
             173.38,519.12 183.00,508.50 184.00,507.88
             184.38,506.00 184.45,506.82 183.64,506.09 Z
           M 170.75,404.25
           C 170.75,404.25 181.75,417.50 182.00,417.50
             182.25,417.50 192.00,433.25 192.00,433.25
             192.00,433.25 196.00,439.50 196.00,439.50
             196.00,439.50 192.75,406.50 192.50,406.50
             192.25,406.50 189.50,383.25 189.50,383.25
             189.50,383.25 193.50,385.00 193.50,385.00
             193.50,385.00 202.25,377.50 202.25,377.50
             202.25,377.50 203.75,390.75 203.75,390.75
             203.75,390.75 237.50,413.50 237.50,413.50
             237.50,413.50 253.75,422.25 255.50,424.75
             258.38,428.00 258.88,436.88 259.75,445.25
             260.38,453.12 261.00,465.75 261.00,465.75
             261.00,465.75 262.50,508.75 263.00,510.75
             264.50,512.00 265.62,512.00 265.62,512.00
             265.62,512.00 287.12,512.12 288.62,512.62
             289.00,513.25 287.88,515.75 285.88,517.38
             283.25,518.75 277.38,519.62 277.38,519.62
             277.38,519.62 276.62,544.00 276.62,544.00
             276.62,544.00 228.25,554.50 228.25,554.50
             228.25,554.50 183.50,564.25 183.50,564.25
             183.50,564.25 164.25,567.75 164.25,567.75
             164.25,567.75 157.75,568.00 157.75,568.00
             157.75,568.00 153.00,559.25 153.00,559.25
             153.00,559.25 123.00,480.50 123.00,480.50
             123.00,480.50 100.75,417.75 100.75,417.75
             100.75,417.75 94.00,399.75 92.75,394.50
             94.25,390.75 106.00,382.50 109.25,381.25
             115.75,382.00 123.75,384.25 123.75,384.25
             123.75,384.25 147.00,392.00 147.00,392.00
             147.00,392.00 161.00,397.50 161.00,397.50
             161.00,397.50 170.75,404.25 170.75,404.25 Z" />
</svg>
